<svg xmlns="http://www.w3.org/2000/svg" width="495" height="195" viewBox="0 0 495 195" fill="none">
  <defs>
    <linearGradient id="langs-card-border" x1="0%" y1="0%" x2="100%" y2="100%">
      <stop offset="0%" stop-color="#30363D" />
      <stop offset="50%" stop-color="#6366f1" stop-opacity="0.4" />
      <stop offset="100%" stop-color="#30363D" />
    </linearGradient>
    <mask id="bar-mask">
      <rect x="25" y="52" width="445" height="10" rx="5" fill="#ffffff" />
    </mask>
  </defs>
  <rect width="495" height="195" rx="6" fill="#0D1117" stroke="url(#langs-card-border)" stroke-width="1.2"/>
  <style>
    .title { font-family: -apple-system,BlinkMacSystemFont,"Segoe UI",Helvetica,Arial,sans-serif; font-size: 14px; font-weight: bold; fill: #6366f1; animation: fadein 0.5s ease-out both; }
    .lang-lbl { font-family: -apple-system,BlinkMacSystemFont,"Segoe UI",Helvetica,Arial,sans-serif; font-size: 11px; fill: #c9d1d9; font-weight: bold; }
    .lang-pct { font-family: -apple-system,BlinkMacSystemFont,"Segoe UI",Helvetica,Arial,sans-serif; font-size: 11px; fill: #8b949e; }
    .bar-segment {
      animation: bar-grow 0.8s cubic-bezier(0.1, 0.8, 0.2, 1) both;
      transform-box: fill-box;
      transform-origin: left center;
    }
    @keyframes fadein { from { opacity: 0; transform: translateY(4px); } to { opacity: 1; transform: translateY(0); } }
    @keyframes bar-grow { from { transform: scaleX(0); } to { transform: scaleX(1); } }
  </style>
  <text x="25" y="35" class="title">Most Used Languages</text>
  <rect x="25" y="52" width="445" height="10" rx="5" fill="#161b22" />
  <rect x="25" y="52" width="232.45418211448052" height="10" fill="#555555" class="bar-segment" mask="url(#bar-mask)" />
  <rect x="257.45418211448055" y="52" width="73.76568296597355" height="10" fill="#f1e05a" class="bar-segment" mask="url(#bar-mask)" />
  <rect x="331.2198650804541" y="52" width="64.90538607792764" height="10" fill="#e34c26" class="bar-segment" mask="url(#bar-mask)" />
  <rect x="396.12525115838173" y="52" width="24.40460868243765" height="10" fill="#563d7c" class="bar-segment" mask="url(#bar-mask)" />
  <rect x="420.52985984081937" y="52" width="19.832047956194607" height="10" fill="#3178c6" class="bar-segment" mask="url(#bar-mask)" />
  <rect x="440.361907797014" y="52" width="15.604141365025846" height="10" fill="#4f5d95" class="bar-segment" mask="url(#bar-mask)" />
  <rect x="455.96604916203984" y="52" width="5.304876162813748" height="10" fill="#3572a5" class="bar-segment" mask="url(#bar-mask)" />
  <rect x="461.2709253248536" y="52" width="2.7115029973040734" height="10" fill="#b07219" class="bar-segment" mask="url(#bar-mask)" />
  <circle cx="30" cy="84" r="4.5" fill="#555555" />
  <text x="44" y="88" class="lang-lbl">C</text>
  <text x="51.5" y="88" class="lang-pct">52.24%</text>
  <circle cx="30" cy="108" r="4.5" fill="#f1e05a" />
  <text x="44" y="112" class="lang-lbl">JavaScript</text>
  <text x="119.0" y="112" class="lang-pct">16.58%</text>
  <circle cx="30" cy="132" r="4.5" fill="#e34c26" />
  <text x="44" y="136" class="lang-lbl">HTML</text>
  <text x="74.0" y="136" class="lang-pct">14.59%</text>
  <circle cx="30" cy="156" r="4.5" fill="#563d7c" />
  <text x="44" y="160" class="lang-lbl">CSS</text>
  <text x="66.5" y="160" class="lang-pct">5.48%</text>
  <circle cx="255" cy="84" r="4.5" fill="#3178c6" />
  <text x="269" y="88" class="lang-lbl">TypeScript</text>
  <text x="344.0" y="88" class="lang-pct">4.46%</text>
  <circle cx="255" cy="108" r="4.5" fill="#4f5d95" />
  <text x="269" y="112" class="lang-lbl">PHP</text>
  <text x="291.5" y="112" class="lang-pct">3.51%</text>
  <circle cx="255" cy="132" r="4.5" fill="#3572a5" />
  <text x="269" y="136" class="lang-lbl">Python</text>
  <text x="314.0" y="136" class="lang-pct">1.19%</text>
  <circle cx="255" cy="156" r="4.5" fill="#b07219" />
  <text x="269" y="160" class="lang-lbl">Java</text>
  <text x="299.0" y="160" class="lang-pct">0.61%</text>
</svg>